<svg width="84" height="42" viewBox="0 0 84 42" fill="none" xmlns="http://www.w3.org/2000/svg">
<path d="M45.7166 33.0131V34.3125C45.728 35.4165 45.5412 36.7032 45.1373 37.7276C44.7334 38.752 44.1355 39.6853 43.3778 40.4741C42.7922 41.0837 42.12 41.5979 41.385 42L61.7345 42V24.5852C60.8189 24.4527 59.9214 24.2009 59.0639 23.8343C57.7357 23.2665 56.5301 22.4348 55.5153 21.3874C54.5006 20.3402 53.6967 19.0979 53.1485 17.7319C52.7853 16.8269 52.539 15.8792 52.4141 14.9129L45.7096 14.8951L45.7166 33.0131Z" fill="#000AAA"/>
<path d="M80 42C82.2091 42 84.0197 40.2051 83.8097 38.006C83.4136 33.8602 82.4024 29.7887 80.8029 25.9273C79.1452 21.9252 76.8812 18.2104 74.0964 14.9108C73.9716 15.8778 73.7252 16.8263 73.3617 17.7319C72.8135 19.0979 72.0095 20.3402 70.9948 21.3874C69.9801 22.4348 68.7744 23.2665 67.4463 23.8343C66.5523 24.2165 65.6148 24.474 64.6587 24.6015V42H80Z" fill="#000AAA"/>
<path d="M42 0C36.4845 -2.41091e-07 31.023 1.08636 25.9273 3.19706C21.0188 5.23023 16.5423 8.17552 12.7342 11.875L55.2426 11.875V13.4253C55.2426 14.3196 55.4508 15.596 55.8549 16.6029C56.259 17.6098 56.8509 18.5235 57.5957 19.2923C58.3406 20.0611 59.2239 20.6699 60.1947 21.0849C61.1655 21.5 62.2054 21.7133 63.2551 21.7133C64.3048 21.7133 65.3447 21.5 66.3154 21.0849C67.2863 20.6699 68.1696 20.0611 68.9144 19.2923C69.6593 18.5235 70.2511 17.6098 70.6552 16.6029C71.0593 15.596 71.2675 14.5162 71.2675 13.4253V11.8767C67.459 8.17642 62.982 5.23054 58.0727 3.19706C52.977 1.08636 47.5155 2.41091e-07 42 0Z" fill="#000AAA"/>
<path d="M32.1488 33.158L32.1642 34.6486C32.1715 35.3611 32.3164 36.0652 32.5906 36.7206C32.8648 37.376 33.2629 37.97 33.7623 38.4685C34.2616 38.9671 34.8524 39.3604 35.5009 39.6262C36.1494 39.892 36.8429 40.0249 37.5417 40.0175C38.2406 40.01 38.9312 39.8623 39.5741 39.5827C40.217 39.3032 40.7995 38.8972 41.2885 38.3881C41.7775 37.879 42.1634 37.2767 42.4241 36.6156C42.6848 35.9545 42.7999 35.15 42.7925 34.4375V33.0444L42.7853 14.8874L23.3682 14.8358V42H33.587C32.9031 41.6259 32.273 41.1544 31.7163 40.5986C30.9426 39.8261 30.3257 38.9058 29.9008 37.8903C29.4759 36.8747 29.2514 35.7838 29.2401 34.6798L29.2247 33.1892L32.1488 33.158Z" fill="#000AAA"/>
<path d="M3.19706 25.9273C1.59762 29.7887 0.586379 33.8601 0.190333 38.006C-0.0197458 40.2051 1.79086 42 4 42H20.444V14.8281L9.99722 14.8003C7.16951 18.1274 4.8733 21.8805 3.19706 25.9273Z" fill="#000AAA"/>
</svg>
