<svg width="293" height="144" viewBox="0 0 293 144" fill="none" xmlns="http://www.w3.org/2000/svg">
<path d="M159.464 113.188V117.643C159.504 121.428 158.852 125.84 157.443 129.352C156.034 132.864 153.949 136.064 151.306 138.768C149.263 140.859 146.919 142.621 144.355 144L215.336 144V84.2921C212.142 83.838 209.012 82.9746 206.021 81.7177C201.388 79.7709 197.182 76.9192 193.643 73.3284C190.103 69.7377 187.299 65.4784 185.387 60.7951C184.12 57.6924 183.261 54.443 182.825 51.1301L159.439 51.0691L159.464 113.188Z" fill="#0914C5"/>
<path d="M293 144C293 125.09 289.211 106.364 281.848 88.8936C276.066 75.1722 268.169 62.4356 258.455 51.1228C258.02 54.4382 257.16 57.6901 255.893 60.7951C253.98 65.4784 251.176 69.7377 247.637 73.3284C244.097 76.9192 239.892 79.7709 235.259 81.7177C232.141 83.028 228.871 83.9108 225.536 84.3479V144H293Z" fill="#0914C5"/>
<path d="M146.5 0C127.261 -8.26598e-07 108.211 3.72468 90.4369 10.9614C73.3155 17.9322 57.7012 28.0303 44.4181 40.7144L192.692 40.7143V46.0294C192.692 49.0959 193.418 53.472 194.827 56.9243C196.237 60.3765 198.301 63.5091 200.899 66.145C203.498 68.7808 206.579 70.8682 209.965 72.2912C213.351 73.7142 216.978 74.4457 220.64 74.4457C224.301 74.4457 227.928 73.7142 231.315 72.2912C234.701 70.8682 237.782 68.7808 240.38 66.145C242.978 63.5091 245.043 60.3764 246.452 56.9243C247.862 53.472 248.588 49.7698 248.588 46.0294V40.7202C235.304 28.0334 219.687 17.9333 202.563 10.9614C184.789 3.72467 165.739 8.26598e-07 146.5 0Z" fill="#0914C5"/>
<path d="M112.138 113.685L112.192 118.795C112.217 121.238 112.723 123.652 113.679 125.899C114.636 128.146 116.024 130.183 117.766 131.892C119.508 133.601 121.569 134.95 123.831 135.861C126.093 136.773 128.511 137.228 130.949 137.203C133.387 137.177 135.796 136.671 138.038 135.712C140.281 134.754 142.313 133.362 144.018 131.617C145.724 129.871 147.07 127.806 147.979 125.539C148.889 123.272 149.29 120.514 149.264 118.071V113.295L149.239 51.0425L81.5106 50.8657V144H117.155C114.769 142.717 112.571 141.101 110.629 139.195C107.931 136.547 105.779 133.391 104.297 129.91C102.815 126.428 102.032 122.687 101.992 118.902L101.939 113.792L112.138 113.685Z" fill="#0914C5"/>
<path d="M11.1516 88.8936C3.78933 106.364 0 125.09 0 144H71.3106V50.8391L34.8712 50.744C25.0079 62.151 16.9985 75.0189 11.1516 88.8936Z" fill="#0914C5"/>
</svg>
