<svg width="56" height="518" viewBox="0 0 56 518" fill="none" xmlns="http://www.w3.org/2000/svg">
<path d="M35 1V489.5M35.3418 489.856C38.2513 490.264 41.342 491.145 43.1869 492.444M43.1869 492.444C46.0475 494.459 45.9134 497.478 37.466 501.299M43.1869 492.444C44.6827 490.964 46.1277 489.224 47.4075 487.265M43.1869 492.444C39.9681 495.63 36.5142 497.614 33.9659 498.002M37.466 501.299C34.2131 502.77 29.7274 504.361 23.7053 506.058C21.76 506.607 19.9653 507.07 18.3118 507.455M37.466 501.299C36.471 500.155 35.2668 499.041 33.9659 498.002M18.3118 507.455C14.4252 520.902 24.0982 517.831 35.9157 512.231C41.818 509.433 40.8551 505.194 37.466 501.299M18.3118 507.455C-7.02 513.35 0.800808 500.812 8.44229 493.328C11.0877 490.737 13.1637 490.375 19.5406 491.422M18.3118 507.455C18.441 507.008 18.5852 506.543 18.7448 506.058C20.3818 501.093 20.1488 495.96 19.5406 491.422M19.5406 491.422C20.7601 491.622 22.137 491.873 23.7053 492.17C25.454 492.729 27.78 493.848 30.1316 495.307M19.5406 491.422C18.3057 482.207 15.5245 475.443 23.7053 477.511C35.9157 480.597 56.4067 465.552 50.4156 481.369C49.6091 483.498 48.5773 485.473 47.4075 487.265M30.1316 495.307C31.433 496.114 32.7423 497.025 33.9659 498.002M30.1316 495.307C30.2933 497.514 31.8036 498.332 33.9659 498.002M30.1316 495.307C30.0521 494.221 30.299 492.8 30.9552 491.013C33.8143 483.231 41.4902 483.779 47.4075 487.265M35.9157 512.231C48.1261 512.231 54.6129 506.058 54.9945 497.571C55.1561 493.976 51.7568 489.827 47.4075 487.265" stroke="#000AAA" stroke-width="2" stroke-linecap="round"/>
</svg>
