<svg width="16" height="8" viewBox="0 0 16 8" fill="none" xmlns="http://www.w3.org/2000/svg">
<path d="M1.7998 0C0.695235 0 -0.224768 0.909011 0.0485077 1.97924C0.142483 2.34728 0.262758 2.70897 0.408769 3.06147C0.810806 4.03207 1.40008 4.91399 2.14295 5.65685C2.88582 6.39972 3.76773 6.989 4.73834 7.39104C5.70894 7.79307 6.74923 8 7.79981 8C8.85038 8 9.89067 7.79307 10.8613 7.39104C11.8319 6.989 12.7138 6.39972 13.4567 5.65685C14.1995 4.91399 14.7888 4.03207 15.1908 3.06147C15.3369 2.70897 15.4571 2.34728 15.5511 1.97924C15.8244 0.90901 14.9044 -9.53674e-07 13.7998 -9.53674e-07L7.7998 0H1.7998Z" fill="#000AAA"/>
</svg>
