<svg width="59" height="56" viewBox="0 0 59 56" fill="none" xmlns="http://www.w3.org/2000/svg">
<path d="M27.8921 25.984C38.2515 5.98401 51.3921 30.984 34.3921 32.484C17.3921 33.984 -0.608235 22.484 15.3921 15.984C31.3925 9.48401 59.8921 9.48401 53.3921 20.984C46.8921 32.484 20.8921 52.984 20.3921 38.984C19.8921 24.984 14.3921 -3.01599 27.8921 1.48401C41.3921 5.98401 44.2598 22.484 56.2598 30.484C62.0841 34.3669 45.2515 49.8484 39.8921 48.984C24.3921 46.484 -8.74019 35.484 3.75925 15.984C11.5345 3.85412 31.3925 20.984 34.3921 25.984C39.5366 34.5592 40.3921 56.984 27.8921 54.484C17.8921 52.484 12.9992 46.484 11.4993 38.984" stroke="#000AAA" stroke-width="2" stroke-linecap="round"/>
</svg>
