<svg width="87" height="46" viewBox="0 0 87 46" fill="none" xmlns="http://www.w3.org/2000/svg">
<path d="M47.3494 36.1573V37.5804C47.3611 38.7895 47.1677 40.1988 46.7494 41.3207C46.331 42.4427 45.7118 43.4648 44.927 44.3288C44.3205 44.9965 43.6243 45.5596 42.8631 46L63.9393 46V26.9267C62.991 26.7816 62.0614 26.5058 61.1733 26.1043C59.7977 25.4824 58.549 24.5714 57.498 23.4243C56.4471 22.2773 55.6144 20.9167 55.0466 19.4207C54.6705 18.4295 54.4154 17.3915 54.286 16.3332L47.342 16.3137L47.3494 36.1573Z" fill="#000AAA"/>
<path d="M83 46C85.2091 46 87.0171 44.2061 86.8356 42.0045C86.4504 37.333 85.3914 32.7433 83.6888 28.3966C81.9718 24.0134 79.6269 19.9447 76.7427 16.3309C76.6134 17.39 76.3582 18.4288 75.9818 19.4207C75.414 20.9167 74.5813 22.2773 73.5304 23.4243C72.4794 24.5714 71.2307 25.4824 69.8551 26.1043C68.9292 26.5228 67.9582 26.8048 66.968 26.9445V46H83Z" fill="#000AAA"/>
<path d="M43.5 0C37.7875 -2.64052e-07 32.1309 1.18983 26.8533 3.50154C21.7695 5.72835 17.1331 8.95414 13.189 13.006L57.2156 13.006V14.7038C57.2156 15.6834 57.4312 17.0813 57.8498 18.1841C58.2683 19.2869 58.8812 20.2876 59.6527 21.1297C60.4242 21.9716 61.339 22.6385 62.3445 23.093C63.35 23.5476 64.427 23.7813 65.5142 23.7813C66.6014 23.7813 67.6784 23.5476 68.6839 23.093C69.6894 22.6385 70.6042 21.9716 71.3757 21.1297C72.1472 20.2876 72.7601 19.2869 73.1786 18.1841C73.5972 17.0813 73.8128 15.8987 73.8128 14.7038V13.0079C69.8683 8.95513 65.2313 5.72869 60.1467 3.50154C54.8691 1.18983 49.2125 2.64052e-07 43.5 0Z" fill="#000AAA"/>
<path d="M33.297 36.3159L33.3129 37.9485C33.3205 38.7288 33.4705 39.5 33.7545 40.2178C34.0385 40.9356 34.4509 41.5861 34.9681 42.1322C35.4853 42.6782 36.0972 43.1091 36.7688 43.4001C37.4404 43.6912 38.1587 43.8368 38.8825 43.8287C39.6063 43.8205 40.3216 43.6587 40.9874 43.3525C41.6533 43.0463 42.2567 42.6017 42.7631 42.0442C43.2696 41.4866 43.6692 40.8269 43.9392 40.1028C44.2092 39.3787 44.3284 38.4976 44.3209 37.7173V36.1915L44.3133 16.3052L24.2028 16.2488V46H34.7865C34.0782 45.5902 33.4256 45.0739 32.849 44.4651C32.0477 43.6191 31.4087 42.6111 30.9687 41.4989C30.5286 40.3866 30.2961 39.1918 30.2843 37.9826L30.2685 36.3501L33.297 36.3159Z" fill="#000AAA"/>
<path d="M3.31124 28.3966C1.60863 32.7433 0.549563 37.333 0.164401 42.0045C-0.0171271 44.2061 1.79086 46 4 46H21.1741V16.2403L10.3543 16.2099C7.42556 19.8538 5.04734 23.9644 3.31124 28.3966Z" fill="#000AAA"/>
</svg>
